<svg xmlns="http://www.w3.org/2000/svg" viewBox="0 0 19 19" height="19" width="19"><title>campsite.svg</title><rect fill="none" x="0" y="0" width="19" height="19"></rect><rect x="1" y="1" rx="4" ry="4" width="17" height="17" stroke="#63410d" style="stroke-linejoin:round;stroke-miterlimit:4;" fill="#63410d" stroke-width="2"></rect><rect x="1" y="1" width="17" height="17" rx="4" ry="4" fill="#fafafa"></rect><path fill="#63410d" transform="translate(2 2)" d="M14 10V11C14 11.5523 13.5523 12 13 12H2C1.44772 12 1 11.5523 1 11V10C1 9.44772 1.44772 9.00001 2 9.00001H2.25L7.03206 1.25762C7.24699 0.90965 7.75302 0.909651 7.96794 1.25762L12.75 9.00001H13C13.5523 9.00001 14 9.44772 14 10ZM10.5 9.00001L7.5 4.00001L4.5 9.00001H10.5Z"></path></svg>