<svg xmlns="http://www.w3.org/2000/svg" viewBox="0 0 19 19" height="19" width="19"><title>elevator.svg</title><rect fill="none" x="0" y="0" width="19" height="19"></rect><rect x="1" y="1" rx="4" ry="4" width="17" height="17" stroke="#366cb3" style="stroke-linejoin:round;stroke-miterlimit:4;" fill="#366cb3" stroke-width="2"></rect><rect x="1" y="1" width="17" height="17" rx="4" ry="4" fill="#fafafa"></rect><path fill="#366cb3" transform="translate(2 2)" d="M11,1H4A1,1,0,0,0,3,2V13a1,1,0,0,0,1,1h7a1,1,0,0,0,1-1V2A1,1,0,0,0,11,1ZM7.5,12.5l-2-4h4Zm-2-6,2-4,2,4Z"></path></svg>