<svg xmlns="http://www.w3.org/2000/svg" viewBox="0 0 19 19" height="19" width="19"><title>farm.svg</title><rect fill="none" x="0" y="0" width="19" height="19"></rect><rect x="1" y="1" rx="4" ry="4" width="17" height="17" stroke="#63410d" style="stroke-linejoin:round;stroke-miterlimit:4;" fill="#63410d" stroke-width="2"></rect><rect x="1" y="1" width="17" height="17" rx="4" ry="4" fill="#fafafa"></rect><path fill="#63410d" transform="translate(2 2)" d="m8 6-3-2-3 2-1 2v4h2v-2h4v2h2v-4zm-2 2h-2v-2h2zm8 4h-3v-9.5c0-.39782.158-.77936.4393-1.06066s.6629-.43934 1.0607-.43934.7794.15804 1.0607.43934.4393.66284.4393 1.06066z"></path></svg>