<svg xmlns="http://www.w3.org/2000/svg" viewBox="0 0 23 23" height="23" width="23"><title>restaurant-pizza.svg</title><rect fill="none" x="0" y="0" width="23" height="23"></rect><rect x="2" y="2" rx="4" ry="4" width="19" height="19" stroke="#964c06" style="stroke-linejoin:round;stroke-miterlimit:4;" fill="#964c06" stroke-width="4"></rect><rect x="2" y="2" width="19" height="19" rx="4" ry="4" fill="#fafafa"></rect><path fill="#964c06" transform="translate(4 4)" d="M1.393 7.931.025 7.315A14.05 14.05 0 0 1 7.764-.001l.027.07.511 1.331-.003.001a12.613 12.613 0 0 0-6.906 6.53Zm10.963 4.96L2.42 8.414a11.604 11.604 0 0 1 6.354-6.009l.003-.001.817 2.122c-.028-.002-.052-.016-.081-.016a1.062 1.062 0 1 0 .764 1.793l2.413 6.273a.249.249 0 0 1-.334.316ZM7.426 7.52a.925.925 0 1 0-1.849 0 .925.925 0 0 0 1.849 0Zm3.017 2.03a.925.925 0 1 0-.07.353.924.924 0 0 0 .07-.354Z"></path></svg>