<svg xmlns="http://www.w3.org/2000/svg" viewBox="0 0 23 23" height="23" width="23"><title>bar.svg</title><rect fill="none" x="0" y="0" width="23" height="23"></rect><rect x="2" y="2" rx="4" ry="4" width="19" height="19" stroke="#964c06" style="stroke-linejoin:round;stroke-miterlimit:4;" fill="#964c06" stroke-width="4"></rect><rect x="2" y="2" width="19" height="19" rx="4" ry="4" fill="#fafafa"></rect><path fill="#964c06" transform="translate(4 4)" d="M7.5,1c-2,0-7,0.25-6.5,0.75L7,8v4
	c0,1-3,0.5-3,2h7c0-1.5-3-1-3-2V8l6-6.25C14.5,1.25,9.5,1,7.5,1z M7.5,2c2.5,0,4.75,0.25,4.75,0.25L11.5,3h-8L2.75,2.25
	C2.75,2.25,5,2,7.5,2z"></path></svg>