<svg xmlns="http://www.w3.org/2000/svg" viewBox="0 0 23 23" height="23" width="23"><title>ice-cream.svg</title><rect fill="none" x="0" y="0" width="23" height="23"></rect><rect x="2" y="2" rx="4" ry="4" width="19" height="19" stroke="#964c06" style="stroke-linejoin:round;stroke-miterlimit:4;" fill="#964c06" stroke-width="4"></rect><rect x="2" y="2" width="19" height="19" rx="4" ry="4" fill="#fafafa"></rect><path fill="#964c06" transform="translate(4 4)" d="M5.44,8.17a3.473,3.473,0,0,0,2-.63A3.5,3.5,0,0,0,9,8.14h.44L8,13.7a.5.5,0,0,1-.92,0Zm6-3.473a2,2,0,0,1-4,0h0a2,2,0,1,1-2-2h.12a2,2,0,1,1,3.75,0h.13A2,2,0,0,1,11.439,4.7Z"></path></svg>