<svg xmlns="http://www.w3.org/2000/svg" viewBox="0 0 19 19" height="19" width="19"><title>historic.svg</title><rect fill="none" x="0" y="0" width="19" height="19"></rect><rect x="1" y="1" rx="4" ry="4" width="17" height="17" stroke="#63410d" style="stroke-linejoin:round;stroke-miterlimit:4;" fill="#63410d" stroke-width="2"></rect><rect x="1" y="1" width="17" height="17" rx="4" ry="4" fill="#fafafa"></rect><path fill="#63410d" transform="translate(2 2)" d="m7.5 1c-1 0-1 1-2 1h-3.5c-.54467 0-1 .45533-1 1v7c0 .5447.45533 1 1 1h5v2.5s0 .5.5.5.5-.5.5-.5v-2.5h5c.5447 0 1-.4553 1-1v-7c0-.54467-.4553-1-1-1h-3.5c-1 0-1-1-2-1zm-4.5 4v-1h9v1zm0 1h4v1h-4zm0 2h7v1h-7z"></path></svg>