<svg xmlns="http://www.w3.org/2000/svg" viewBox="0 0 19 19" height="19" width="19"><title>mountain.svg</title><rect fill="none" x="0" y="0" width="19" height="19"></rect><rect x="1" y="1" rx="4" ry="4" width="17" height="17" stroke="#1c1c1c" style="stroke-linejoin:round;stroke-miterlimit:4;" fill="#1c1c1c" stroke-width="2"></rect><rect x="1" y="1" width="17" height="17" rx="4" ry="4" fill="#fafafa"></rect><path fill="#1c1c1c" transform="translate(2 2)" d="m7.5 1c-.3 0-.4.2-.6.4l-5.8 9.5c-.1.1-.1.3-.1.4 0 .5.4.7.7.7h11.6c.4 0 .7-.2.7-.7 0-.2 0-.2-.1-.4l-5.7-9.5c-.2-.2-.4-.4-.7-.4zm0 1.5 3.3 5.5h-.8l-1.5-1.5-1 1.5-1-1.5-1.5 1.5h-.9z"></path></svg>