<svg xmlns="http://www.w3.org/2000/svg" viewBox="0 0 19 19" height="19" width="19"><title>residential-community.svg</title><rect fill="none" x="0" y="0" width="19" height="19"></rect><rect x="1" y="1" rx="4" ry="4" width="17" height="17" stroke="#1c1c1c" style="stroke-linejoin:round;stroke-miterlimit:4;" fill="#1c1c1c" stroke-width="2"></rect><rect x="1" y="1" width="17" height="17" rx="4" ry="4" fill="#fafafa"></rect><path fill="#1c1c1c" transform="translate(2 2)" d="m11.8 12.5v-2.5c.7-.1 1.2-.7 1.2-1.5s-.7-1.5-1.5-1.5-1.5.7-1.5 1.5c0 .7.5 1.4 1.2 1.5v2.5h-4.2v-11.5h-5v11.5h-1v.5h13v-.5zm-5.8-2.5h-3v-1h3zm0-2h-3v-1h3zm0-2h-3v-1h3zm0-2h-3v-1h3z"></path></svg>