<svg xmlns="http://www.w3.org/2000/svg" viewBox="0 0 23 23" height="23" width="23"><title>shoe.svg</title><rect fill="none" x="0" y="0" width="23" height="23"></rect><rect x="2" y="2" rx="4" ry="4" width="19" height="19" stroke="#0d4d07" style="stroke-linejoin:round;stroke-miterlimit:4;" fill="#0d4d07" stroke-width="4"></rect><rect x="2" y="2" width="19" height="19" rx="4" ry="4" fill="#fafafa"></rect><path fill="#0d4d07" transform="translate(4 4)" d="M9.5,7a9.97,9.97,0,0,1-1.315-.948L6.01,3.221a.558.558,0,0,0-1,.279H5V5H3.209a.5.5,0,0,1-.357-.148S2.5,4,2,4H1.5a.5.5,0,0,0-.5.5V9H6.5c1.5,0,2,1,3.5,1h4V9.5C14,8,10.547,7.594,9.5,7Zm0,4a3.131,3.131,0,0,1-1.526-.447A4.1,4.1,0,0,0,6,10H1v1.5a.5.5,0,0,0,.5.5h4a.5.5,0,0,0,.5-.5V11a3.134,3.134,0,0,1,1.526.447A4.1,4.1,0,0,0,9.5,12h4a.5.5,0,0,0,.5-.5V11Z"></path></svg>