<svg xmlns="http://www.w3.org/2000/svg" viewBox="0 0 19 19" height="19" width="19"><title>star-stroked.svg</title><rect fill="none" x="0" y="0" width="19" height="19"></rect><rect x="1" y="1" rx="4" ry="4" width="17" height="17" stroke="#c79c1c" style="stroke-linejoin:round;stroke-miterlimit:4;" fill="#c79c1c" stroke-width="2"></rect><rect x="1" y="1" width="17" height="17" rx="4" ry="4" fill="#fafafa"></rect><path fill="#c79c1c" transform="translate(2 2)" d="m7.5 2.69 1.07 2.68.25.63h3l-2 1.75-.5.44.23.63 1 3.13-2.48-1.77-.57-.4-.57.4-2.52 1.77 1-3.13.21-.63-.5-.44-2-1.75h3l.25-.63zm0-2.69-2 5h-5l4 3.5-2 6 5-3.5 5 3.5-2-6 4-3.5h-5z"></path></svg>