<svg xmlns="http://www.w3.org/2000/svg" viewBox="0 0 19 19" height="19" width="19"><title>triangle.svg</title><rect fill="none" x="0" y="0" width="19" height="19"></rect><rect x="1" y="1" rx="4" ry="4" width="17" height="17" stroke="#c79c1c" style="stroke-linejoin:round;stroke-miterlimit:4;" fill="#c79c1c" stroke-width="2"></rect><rect x="1" y="1" width="17" height="17" rx="4" ry="4" fill="#fafafa"></rect><path fill="#c79c1c" transform="translate(2 2)" d="m7.5385 1c-.2948 0-.4883.1772-.6154.3846l-5.8462 9.5385c-.0769.0769-.0769.2307-.0769.3846 0 .5385.3846.6923.6923.6923h11.6154c.3846 0 .6923-.1538.6923-.6923 0-.1538 0-.2308-.0769-.3846l-5.7693-9.5385c-.1258-.2081-.3656-.3846-.6153-.3846z"></path></svg>