<svg xmlns="http://www.w3.org/2000/svg" viewBox="0 0 19 19" height="19" width="19"><title>watch.svg</title><rect fill="none" x="0" y="0" width="19" height="19"></rect><rect x="1" y="1" rx="4" ry="4" width="17" height="17" stroke="#2d15a3" style="stroke-linejoin:round;stroke-miterlimit:4;" fill="#2d15a3" stroke-width="2"></rect><rect x="1" y="1" width="17" height="17" rx="4" ry="4" fill="#fafafa"></rect><path fill="#2d15a3" transform="translate(2 2)" d="M12.5,7H12a.426.426,0,0,0-.049.01A4.484,4.484,0,0,0,10,3.76V1.5A.5.5,0,0,0,9.5,1h-4a.5.5,0,0,0-.5.5V3.76a4.5,4.5,0,0,0,0,7.48V13.5a.5.5,0,0,0,.5.5h4a.5.5,0,0,0,.5-.5V11.24a4.486,4.486,0,0,0,1.951-3.25A.426.426,0,0,0,12,8h.5a.5.5,0,0,0,0-1Zm-5,4A3.5,3.5,0,1,1,11,7.5,3.5,3.5,0,0,1,7.5,11ZM9,7H8V5.5a.5.5,0,0,0-1,0v2a.5.5,0,0,0,.5.5H9A.5.5,0,0,0,9,7Z"></path></svg>